PathFileType	4	(X/Y/Z)	/Users/itak/Documents/Research/Walk-IL/dataset/trc/00093_00006.trc
DataRate	CameraRate	NumFrames	NumMarkers	Units	OrigDataRate	OrigDataStartFrame	OrigNumFrames
100.000000	100.000000	4	53	mm	100.000000	296	475
Frame#	Time	RPSI			LPSI			L3			STRN			T10			C7			CLAV			RBAK			LBAK			LSHO			LUPA			LAEL			LAOL			LWTS			LWPS			LFRA			LIFD			LHPS			LHTS			RSHO			RUPA			RAEL			RAOL			RWTS			RWPS			RFRA			RIFD			RHTS			RHPS			RBHD			LFHD			RFHD			LBHD			LHIP			RHIP			RASI			LASI			LKNE			LTHI			LANK			LTIP			LTOE			LMT1			LMT5			LHEE			RKNE			RTHI			RANK			RTIP			RTOE			RMT1			RMT5			RHEE			
		X1	Y1	Z1	X2	Y2	Z2	X3	Y3	Z3	X4	Y4	Z4	X5	Y5	Z5	X6	Y6	Z6	X7	Y7	Z7	X8	Y8	Z8	X9	Y9	Z9	X10	Y10	Z10	X11	Y11	Z11	X12	Y12	Z12	X13	Y13	Z13	X14	Y14	Z14	X15	Y15	Z15	X16	Y16	Z16	X17	Y17	Z17	X18	Y18	Z18	X19	Y19	Z19	X20	Y20	Z20	X21	Y21	Z21	X22	Y22	Z22	X23	Y23	Z23	X24	Y24	Z24	X25	Y25	Z25	X26	Y26	Z26	X27	Y27	Z27	X28	Y28	Z28	X29	Y29	Z29	X30	Y30	Z30	X31	Y31	Z31	X32	Y32	Z32	X33	Y33	Z33	X34	Y34	Z34	X35	Y35	Z35	X36	Y36	Z36	X37	Y37	Z37	X38	Y38	Z38	X39	Y39	Z39	X40	Y40	Z40	X41	Y41	Z41	X42	Y42	Z42	X43	Y43	Z43	X44	Y44	Z44	X45	Y45	Z45	X46	Y46	Z46	X47	Y47	Z47	X48	Y48	Z48	X49	Y49	Z49	X50	Y50	Z50	X51	Y51	Z51	X52	Y52	Z52	X53	Y53	Z53	

297	2.96	-384.0707397460938	1003.252624511719	504.430908203125	-262.1053771972656	1003.842224121094	385.804931640625	-317.8740539550781	1066.017456054688	434.4559326171875	-166.091552734375	1268.281127929688	635.5748291015625	-309.83837890625	1194.367065429688	412.4131164550781	-278.7584838867188	1463.314453125	452.1351318359375	-184.5708312988281	1381.918090820312	607.470947265625	-372.1736450195312	1323.606811523438	442.9047241210938	-201.4832611083984	1424.433349609375	380.0026550292969	-90.37332153320312	1435.869995117188	431.3719482421875	-14.7755298614502	1315.738647460938	388.1560668945312	75.23712158203125	1125.653442382812	426.7886962890625	-21.2753849029541	1076.882690429688	431.7744445800781	152.46044921875	947.4539184570312	603.3243408203125	169.2098083496094	912.0625610351562	528.0947265625	126.4206085205078	1035.524780273438	467.8643798828125	206.4795684814453	794.2421875	688.890625	211.8843841552734	858.6554565429688	581.5366821289062	197.0212554931641	889.2420654296875	644.21435546875	-392.1459045410156	1427.647827148438	601.4013671875	-452.95703125	1359.7666015625	622.3652954101562	-506.2314758300781	1102.930908203125	588.7304077148438	-412.8006591796875	1074.994018554688	562.052734375	-442.0100402832031	834.1792602539062	674.3475341796875	-519.211181640625	833.31689453125	633.0665283203125	-514.28955078125	1025.08642578125	596.7017822265625	-446.8070983886719	649.6453857421875	645.134521484375	-444.9301452636719	731.2228393554688	686.317626953125	-517.8882446289062	739.818603515625	659.8308715820312	-318.0695190429688	1617.633056640625	496.7239685058594	-155.166015625	1699.259033203125	624.7621459960938	-276.2158203125	1678.704956054688	651.9354248046875	-188.6767578125	1645.303344726562	457.4900512695312	-122.6180114746094	945.24853515625	400.4439392089844	-397.5113220214844	935.4481811523438	609.5731201171875	-299.0076904296875	962.87109375	686.3018188476562	-89.434814453125	954.1818237304688	520.3046264648438	-168.1650543212891	481.1268920898438	460.0555114746094	-143.3373565673828	623.1531982421875	424.96044921875	-306.6747131347656	49.646484375	307.3922424316406	-232.3647613525391	254.9276580810547	368.0626525878906	-181.8918304443359	41.29804229736328	469.8736572265625	-254.0018310546875	43.03518295288086	465.6980285644531	-212.6178131103516	34.40114212036133	360.3404235839844	-398.0130310058594	60.02254867553711	315.390380859375	-232.0411682128906	516.0615234375	737.1705932617188	-324.5794677734375	774.4228515625	704.369873046875	-143.1312561035156	36.61213684082031	760.5372314453125	-216.4995574951172	394.7378540039062	746.6422729492188	-25.396728515625	119.1993560791016	914.6541748046875	-14.8987283706665	99.79685974121094	849.4483032226562	-109.0766372680664	78.63671875	868.4151611328125	-114.30419921875	32.25489044189453	694.3739013671875	
298	2.97	-378.9403076171875	1002.069885253906	510.2801513671875	-256.2097473144531	1003.044067382812	392.4485473632812	-312.0229797363281	1064.601196289062	441.0198974609375	-162.1192626953125	1267.071655273438	642.8861083984375	-304.1447448730469	1192.929443359375	418.7287902832031	-274.0497131347656	1461.992797851562	458.7304077148438	-180.6744689941406	1380.672485351562	614.700927734375	-367.0107421875	1321.961547851562	448.7990112304688	-196.2814636230469	1423.3798828125	387.0692749023438	-85.44056701660156	1434.877075195312	439.1661071777344	-9.625528335571289	1314.653442382812	396.3443908691406	80.20543670654297	1124.543090820312	435.0155639648438	-16.26903915405273	1075.772094726562	439.635986328125	156.4615173339844	947.1524047851562	612.6570434570312	173.5514068603516	911.2930297851562	537.7139892578125	131.2056579589844	1034.498901367188	476.6534729003906	209.9816131591797	794.480712890625	699.4174194335938	215.9336242675781	858.1802978515625	591.6806640625	200.8340148925781	889.1951904296875	654.0776977539062	-388.4222106933594	1425.775146484375	607.1575317382812	-449.1184387207031	1357.679931640625	627.6663818359375	-501.4793395996094	1100.787231445312	593.4137573242188	-407.8722839355469	1073.091186523438	567.2103881835938	-437.76953125	831.8518676757812	678.4202270507812	-514.8551635742188	831.26611328125	636.93115234375	-509.46728515625	1023.079040527344	601.1722412109375	-442.7304992675781	647.444580078125	648.4651489257812	-440.9099731445312	728.7879638671875	689.9696655273438	-513.752685546875	737.6719360351562	663.30322265625	-313.9503784179688	1616.1787109375	502.9214477539062	-151.7909698486328	1698.260498046875	631.540283203125	-272.9463806152344	1677.656616210938	658.172607421875	-184.4638671875	1643.891479492188	464.2294616699219	-116.8120193481445	944.242431640625	407.5538940429688	-392.512939453125	934.0304565429688	615.2998657226562	-294.4904174804688	961.4466552734375	692.742431640625	-84.08843994140625	952.9937744140625	527.6109619140625	-164.8627014160156	480.0557250976562	464.6589050292969	-139.0454254150391	622.162353515625	430.4787902832031	-306.4107055664062	50.67766571044922	307.5498352050781	-230.5616760253906	254.9885864257812	370.1458129882812	-181.8449859619141	41.28112030029297	469.8849792480469	-253.8076782226562	43.06668090820312	465.6767272949219	-212.4337463378906	34.49491119384766	360.4218444824219	-397.7323608398438	61.78171920776367	315.4898681640625	-226.7064361572266	514.958984375	742.6728515625	-319.6109313964844	773.0827026367188	710.3270263671875	-138.4027404785156	35.88699340820312	763.7673950195312	-211.2502746582031	393.2442932128906	751.7349853515625	-20.8082103729248	115.7463302612305	919.1047973632812	-10.01626777648926	96.93727111816406	853.7503662109375	-104.4692535400391	76.23940277099609	872.1190795898438	-109.2838745117188	31.98221015930176	697.6753540039062	
299	2.98	-373.8775329589844	1001.080627441406	516.1845703125	-250.2733764648438	1002.335388183594	399.1915283203125	-306.0342712402344	1063.249389648438	447.7654113769531	-158.1708068847656	1265.9873046875	650.3314208984375	-298.4598999023438	1191.596923828125	425.1496276855469	-269.3899841308594	1460.79248046875	465.4421081542969	-176.8302612304688	1379.5478515625	622.060546875	-361.8746643066406	1320.413818359375	454.8046569824219	-191.1266174316406	1422.428466796875	394.25390625	-80.50941467285156	1433.946533203125	447.0619201660156	-4.589803695678711	1313.612060546875	404.6164855957031	84.89781951904297	1123.3544921875	443.171630859375	-11.5944128036499	1074.66748046875	447.4030151367188	160.0239410400391	946.52783203125	621.70166015625	177.4302215576172	910.2689208984375	546.9990234375	135.6177520751953	1033.311401367188	485.2607116699219	212.9371032714844	794.267822265625	709.4757690429688	219.4827423095703	857.3526000976562	601.4303588867188	204.1927032470703	888.7449340820312	663.5784301757812	-384.7573852539062	1423.995361328125	613.014404296875	-445.3287048339844	1355.64697265625	633.0555419921875	-496.642578125	1098.673461914062	598.2566528320312	-402.8728332519531	1071.242309570312	572.5574340820312	-433.4052734375	829.6046142578125	682.77783203125	-510.3584899902344	829.26904296875	641.0391845703125	-504.5435791015625	1021.102600097656	605.8233032226562	-438.4955749511719	645.318603515625	652.104736328125	-436.7286987304688	726.4649658203125	693.9339599609375	-509.4563598632812	735.5930786132812	667.0554809570312	-309.8919067382812	1614.848876953125	509.2061767578125	-148.4688110351562	1697.38818359375	638.3900756835938	-269.7358093261719	1676.738037109375	664.484130859375	-180.3181915283203	1642.59228515625	471.0486755371094	-110.9968185424805	943.2805786132812	414.7650756835938	-387.3887939453125	932.7855224609375	621.1371459960938	-289.923583984375	960.1845703125	699.2941284179688	-78.75536346435547	951.8692626953125	535.031494140625	-161.4216613769531	479.0105895996094	469.5705871582031	-134.6184692382812	621.2003173828125	436.2269897460938	-306.0400390625	51.92001342773438	307.7061767578125	-228.6276245117188	255.1627807617188	372.3609008789062	-181.7996978759766	41.26520919799805	469.9010314941406	-253.5641174316406	43.11601257324219	465.6572570800781	-212.1938781738281	34.61929702758789	360.5063781738281	-397.3299865722656	63.83126449584961	315.5699157714844	-221.3682556152344	514.0924682617188	748.5288696289062	-314.5061340332031	772.0161743164062	716.4674072265625	-134.9295959472656	35.29111480712891	765.8937377929688	-206.1988372802734	391.8388977050781	756.9580078125	-16.92476463317871	111.1472091674805	922.6138916015625	-5.964517116546631	93.15286254882812	857.023681640625	-100.7635726928711	73.330810546875	874.8269653320312	-105.5848999023438	31.93124771118164	699.8657836914062	
300	2.99	-368.8570251464844	1000.331359863281	522.1466064453125	-244.2825622558594	1001.718872070312	406.0227355957031	-299.8976135253906	1062.001831054688	454.6899719238281	-154.2442474365234	1265.065551757812	657.8995971679688	-292.7945556640625	1190.418090820312	431.6663208007812	-264.7742309570312	1459.7607421875	472.2750854492188	-173.0314483642578	1378.583862304688	629.5471801757812	-356.7654418945312	1319.018310546875	460.9227905273438	-186.0131378173828	1421.623901367188	401.5574340820312	-75.58029174804688	1433.1162109375	455.0643615722656	0.3282844722270966	1312.6533203125	412.9704284667969	89.30248260498047	1122.12744140625	451.2594604492188	-7.263344287872314	1073.6103515625	455.0850830078125	163.1507110595703	945.5987548828125	630.445556640625	180.8488311767578	909.0242919921875	555.9270629882812	139.6399383544922	1031.9990234375	493.6820983886719	215.3538513183594	793.6074829101562	719.0299072265625	222.5326232910156	856.1963500976562	610.7568359375	207.0928039550781	887.902587890625	672.6990966796875	-381.1412658691406	1422.349975585938	618.98291015625	-441.5681762695312	1353.708251953125	638.546630859375	-491.7223510742188	1096.62744140625	603.2549438476562	-397.8041687011719	1069.485961914062	578.0974731445312	-428.9292907714844	827.4840698242188	687.4327392578125	-505.7157287597656	827.3579711914062	645.3792114257812	-499.5240478515625	1019.194152832031	610.644287109375	-434.0844116210938	643.3034057617188	656.08447265625	-432.3909301757812	724.3046875	698.2265014648438	-504.9974365234375	733.6102294921875	671.0804443359375	-305.891357421875	1613.679809570312	515.5747680664062	-145.1972961425781	1696.685302734375	645.306884765625	-266.5807800292969	1675.9931640625	670.8658447265625	-176.2259216308594	1641.44189453125	477.9469909667969	-105.1610794067383	942.3735961914062	422.0841979980469	-382.1613159179688	931.7748413085938	627.0736694335938	-285.3241577148438	959.1447143554688	705.950439453125	-73.43919372558594	950.8333129882812	542.5655517578125	-157.7942352294922	477.9890747070312	474.8659362792969	-130.0198059082031	620.2750244140625	442.2624206542969	-305.5347290039062	53.41008377075195	307.8660583496094	-226.5234222412109	255.4791107177734	374.7464599609375	-181.7539672851562	41.25109481811523	469.9247436523438	-253.26416015625	43.18445587158203	465.6475830078125	-211.8932952880859	34.77701187133789	360.5917663574219	-396.7690124511719	66.22975921630859	315.6384582519531	-216.0900573730469	513.486572265625	754.6763916015625	-309.29638671875	771.2739868164062	722.7914428710938	-132.5436401367188	34.89496994018555	767.2103271484375	-201.3677825927734	390.6151733398438	762.3397216796875	-13.69351100921631	105.6577835083008	925.4891357421875	-2.673238754272461	88.69771575927734	859.5922241210938	-97.87868499755859	70.11628723144531	876.821533203125	-103.0111618041992	32.16169357299805	701.2655029296875	
